Coordinates
version=1
nRows=24
nColumns=22
inDegrees=yes

Units are S.I. units (second, meters, Newtons, ...)
If the header above contains a line with 'inDegrees', this indicates whether rotational values are in degrees (yes) or radians (no).

endheader
time	pelvis_tilt	pelvis_list	pelvis_rotation	pelvis_tx	pelvis_ty	pelvis_tz	hip_flexion_r	hip_adduction_r	hip_rotation_r	knee_angle_r	ankle_angle_r	subtalar_angle_r	hip_flexion_l	hip_adduction_l	hip_rotation_l	knee_angle_l	ankle_angle_l	subtalar_angle_l	lumbar_extension	lumbar_bending	lumbar_rotation
      1.55000000	     -5.51773899	     -6.16026849	      3.31085449	     -1.04855407	      0.97213732	     -0.23589468	      7.49025256	      8.43818266	     -6.38090977	    -15.94742529	     12.22444909	     -0.86786331	      4.88098152	     -8.19067697	      4.42439781	     -8.72956975	     12.32682638	      2.27478575	      2.00812494	      5.49061838	     -4.87614796
      1.56000000	     -5.49720075	     -6.14915770	      3.26311140	     -1.04826323	      0.97208104	     -0.23554259	      7.49379313	      8.45131338	     -6.32444597	    -16.02980539	     12.27213986	     -0.87630013	      4.92073503	     -8.20058560	      4.38120813	     -8.89261277	     12.41212078	      2.31349570	      1.95306294	      5.47072411	     -4.88402037
      1.57000000	     -5.49777036	     -6.14754910	      3.19452357	     -1.04795283	      0.97199044	     -0.23510841	      7.52579875	      8.47962660	     -6.24339713	    -16.12658588	     12.31073866	     -0.88961663	      5.00438979	     -8.22397688	      4.31138970	     -9.09894559	     12.52931418	      2.43122507	      1.91737810	      5.46108127	     -4.87257403
      1.58000000	     -5.46083590	     -6.13200767	      3.15551488	     -1.04757519	      0.97193758	     -0.23467947	      7.48688492	      8.49583614	     -6.18890935	    -16.17526614	     12.37051847	     -0.90171467	      5.07588834	     -8.23042993	      4.29192350	     -9.35232132	     12.63724053	      2.45138398	      1.83856431	      5.43536642	     -4.88487885
      1.59000000	     -5.42830059	     -6.12703410	      3.09940227	     -1.04714907	      0.97185841	     -0.23420070	      7.45503443	      8.52678786	     -6.11547981	    -16.23572333	     12.42667931	     -0.91699141	      5.18015035	     -8.24937570	      4.25296318	     -9.66445788	     12.78072859	      2.48502569	      1.76627174	      5.42771686	     -4.87983796
      1.60000000	     -5.45614276	     -6.14550802	      3.02422493	     -1.04676768	      0.97169337	     -0.23362808	      7.49725060	      8.58753811	     -6.00953461	    -16.30700068	     12.45942118	     -0.95527690	      5.40618965	     -8.29338913	      4.20927659	    -10.07270976	     12.95629471	      2.67677021	      1.75039438	      5.44065103	     -4.85158241
      1.61000000	     -5.39403060	     -6.13193162	      2.97295180	     -1.04625212	      0.97161598	     -0.23308253	      7.41558040	      8.61623537	     -5.93363155	    -16.34830703	     12.53388087	     -0.97234024	      5.54729272	     -8.30263591	      4.19903526	    -10.51155644	     13.12749125	      2.68314496	      1.63791787	      5.42521595	     -4.85346284
      1.62000000	     -5.42075775	     -6.17648987	      2.90164340	     -1.04581825	      0.97140181	     -0.23243828	      7.44639488	      8.71049466	     -5.82534462	    -16.40528054	     12.56578673	     -1.01344464	      5.87412081	     -8.37163231	      4.18793013	    -11.09768818	     13.35269716	      2.84502346	      1.61396999	      5.47009519	     -4.82703548
      1.63000000	     -5.39864939	     -6.20830297	      2.84461114	     -1.04530285	      0.97122015	     -0.23180149	      7.41055323	      8.79131154	     -5.73557613	    -16.44833922	     12.62514445	     -1.04558056	      6.19038607	     -8.42470054	      4.20159886	    -11.76272833	     13.58979846	      2.94561243	      1.53500461	      5.50597116	     -4.81443231
      1.64000000	     -5.34604161	     -6.25411836	      2.78664146	     -1.04473364	      0.97103229	     -0.23114040	      7.34126314	      8.88793205	     -5.66393889	    -16.49558759	     12.70618834	     -1.06828133	      6.52666013	     -8.49123135	      4.23029330	    -12.52545057	     13.86279684	      2.99376241	      1.41871324	      5.56100100	     -4.77791022
      1.65000000	     -5.35922118	     -6.32333704	      2.75468467	     -1.04421179	      0.97073854	     -0.23048043	      7.33528128	      9.00780827	     -5.57744436	    -16.51944972	     12.74711065	     -1.09346816	      7.04076308	     -8.57078643	      4.30285574	    -13.45459236	     14.12116282	      3.14326405	      1.37037951	      5.63919308	     -4.80136005
      1.66000000	     -5.33792385	     -6.40605163	      2.73093698	     -1.04362797	      0.97043352	     -0.22982691	      7.28993516	      9.13894058	     -5.52985378	    -16.54455607	     12.82002116	     -1.11134255	      7.58413916	     -8.66028533	      4.39119501	    -14.50226540	     14.41782822	      3.27909068	      1.28111754	      5.73682849	     -4.80188505
      1.67000000	     -5.31623116	     -6.49990322	      2.72464063	     -1.04301528	      0.97007938	     -0.22919364	      7.24384308	      9.27679250	     -5.51585871	    -16.57053958	     12.91526412	     -1.12287386	      8.21104836	     -8.75287148	      4.50443773	    -15.69033313	     14.72687974	      3.44833516	      1.18863083	      5.84849910	     -4.80702780
      1.68000000	     -5.25214057	     -6.64162995	      2.72879133	     -1.04235585	      0.96973815	     -0.22856812	      7.14070812	      9.46942552	     -5.48529429	    -16.57406516	     12.97354702	     -1.11404334	      8.86724615	     -8.89211095	      4.63677891	    -17.00234184	     15.02802692	      3.54938373	      1.04395522	      6.02018287	     -4.82430999
      1.69000000	     -5.20606597	     -6.78719527	      2.76118719	     -1.04166735	      0.96932761	     -0.22799880	      7.05338130	      9.65715906	     -5.50822147	    -16.57203164	     13.05752103	     -1.10088770	      9.63375791	     -9.02092218	      4.79704816	    -18.45955562	     15.32054643	      3.71283221	      0.91884008	      6.19616408	     -4.85133886
      1.70000000	     -5.16295366	     -6.93829665	      2.81726701	     -1.04091058	      0.96887816	     -0.22748044	      6.95288031	      9.84456269	     -5.57176416	    -16.54485888	     13.15898404	     -1.08089918	     10.47898847	     -9.14513123	      4.96657621	    -20.03821516	     15.58714353	      3.94028614	      0.79932857	      6.37897139	     -4.87852307
      1.71000000	     -5.10125617	     -7.08797666	      2.88395537	     -1.04011077	      0.96842059	     -0.22700870	      6.84390143	     10.02622938	     -5.65496402	    -16.54476802	     13.29791677	     -1.05854852	     11.36444564	     -9.25855454	      5.14459294	    -21.71431869	     15.83172578	      4.24271380	      0.65314281	      6.56466775	     -4.90201023
      1.72000000	     -5.01188748	     -7.25175205	      2.96769214	     -1.03920456	      0.96799592	     -0.22658310	      6.67686304	     10.22457579	     -5.74160736	    -16.50016762	     13.40272799	     -1.02737977	     12.26773861	     -9.38026819	      5.32560749	    -23.45964174	     16.02811544	      4.51601221	      0.48081685	      6.76846134	     -4.92625150
      1.73000000	     -4.91119200	     -7.40734628	      3.06420470	     -1.03819701	      0.96759396	     -0.22621086	      6.48093710	     10.41293991	     -5.84118485	    -16.43563368	     13.50758399	     -0.99426671	     13.19224622	     -9.48487112	      5.50741084	    -25.24816184	     16.17083177	      4.80111886	      0.29959584	      6.96410549	     -4.94260454
      1.74000000	     -4.79595366	     -7.54164069	      3.16407021	     -1.03708905	      0.96723375	     -0.22588824	      6.26028635	     10.57850598	     -5.94096895	    -16.36871722	     13.61586063	     -0.96143285	     14.11654258	     -9.56022076	      5.67998391	    -27.04746515	     16.27281231	      5.10830402	      0.10327257	      7.13827970	     -4.94773602
      1.75000000	     -4.67195976	     -7.65198868	      3.26544218	     -1.03586496	      0.96692413	     -0.22561956	      6.01587269	     10.71840017	     -6.03783642	    -16.29128669	     13.72319277	     -0.92977976	     15.02833776	     -9.60198853	      5.84874421	    -28.81850644	     16.33069836	      5.41499960	     -0.09894253	      7.28564577	     -4.93101932
      1.76000000	     -4.51913509	     -7.73850820	      3.36071096	     -1.03450030	      0.96670135	     -0.22539396	      5.72277247	     10.83701006	     -6.11295154	    -16.20117641	     13.80243060	     -0.89934686	     15.88964505	     -9.61513861	      5.99835282	    -30.52918066	     16.38277278	      5.62886554	     -0.32914089	      7.40848895	     -4.89852860
      1.77000000	     -4.41343166	     -7.75814370	      3.44394311	     -1.03307406	      0.96648910	     -0.22522710	      5.48871658	     10.87739738	     -6.18785619	    -16.14612558	     13.93735726	     -0.87290198	     16.77481258	     -9.54280049	      6.13927842	    -32.15288020	     16.36432511	      6.00255840	     -0.51073003	      7.45465320	     -4.84225719
      1.78000000	     -4.27373293	     -7.76176674	      3.51629544	     -1.03148435	      0.96638048	     -0.22510380	      5.19408509	     10.90521565	     -6.23735763	    -16.06813237	     14.02827077	     -0.84745657	     17.57924144	     -9.45225253	      6.25391820	    -33.65169640	     16.38768182	      6.21118242	     -0.72343880	      7.48503787	     -4.76562517
